<svg id="antrophia" data-name="antrophia" xmlns="http://www.w3.org/2000/svg" viewBox="0 0 305.27 24.77">
    <title>antrophia</title>
    <path d="M378.59,375l13.53-24.77h4.43L410.3,375h-4.54l-3.17-6.09H385.84L382.67,375Zm9-9.26h13.34l-6.68-12.68Z"
          transform="translate(-378.59 -350.23)"/>
    <path d="M418.32,375V350.23h2.6l18.54,16.57a15.81,15.81,0,0,1,1.35,1.36c.48.53,1,1.11,1.46,1.75-.12-.79-.22-1.62-.28-2.49s-.09-2.07-.09-3.6V350.23h3.8V375h-2.32l-19-17.23-.42-.37a10.6,10.6,0,0,1-2.08-2.42c.09.75.16,1.56.21,2.41s.07,1.85.07,3V375Z"
          transform="translate(-378.59 -350.23)"/>
    <path d="M468.15,353.6V375H464V353.6H452.7v-3.37h26.82v3.37Z" transform="translate(-378.59 -350.23)"/>
    <path d="M486.48,375V350.23h20a5.86,5.86,0,0,1,4,1.13A4.76,4.76,0,0,1,511.7,355v5.53a4.74,4.74,0,0,1-1.24,3.65,5.86,5.86,0,0,1-4,1.13h-3.64L514.13,375H508l-10.08-9.66h-7.29V375Zm18.35-21.56H490.62v8.69h14.21a3,3,0,0,0,2.11-.56,2.76,2.76,0,0,0,.56-2V356a2.76,2.76,0,0,0-.57-2A3,3,0,0,0,504.83,353.44Z"
          transform="translate(-378.59 -350.23)"/>
    <path d="M522.73,356.09c0-2.25.41-3.79,1.21-4.62s2.34-1.24,4.61-1.24h17.13q3.35,0,4.56,1.23c.8.82,1.21,2.36,1.21,4.63v13.05c0,2.28-.41,3.83-1.21,4.64s-2.33,1.22-4.56,1.22H528.55c-2.27,0-3.8-.41-4.61-1.24s-1.21-2.37-1.21-4.62Zm4.13,15.46h20.51V353.6H526.86Z"
          transform="translate(-378.59 -350.23)"/>
    <path d="M564,375V350.23h20a5.87,5.87,0,0,1,4,1.13,4.79,4.79,0,0,1,1.23,3.67v5.53a4.77,4.77,0,0,1-1.23,3.65,5.87,5.87,0,0,1-4,1.13H568.16V375Zm18.35-21.56h-14.2v8.65h14.2a2.93,2.93,0,0,0,2.1-.59,2.85,2.85,0,0,0,.57-2V356a2.87,2.87,0,0,0-.57-2A2.93,2.93,0,0,0,582.36,353.44Z"
          transform="translate(-378.59 -350.23)"/>
    <path d="M599.33,375V350.23h4.15v10.12H623V350.23h4.12V375H623V363.77H603.48V375Z"
          transform="translate(-378.59 -350.23)"/>
    <path d="M640,375V350.23h4.15V375Z" transform="translate(-378.59 -350.23)"/>
    <path d="M652.16,375l13.52-24.77h4.43L683.87,375h-4.55l-3.16-6.09H659.4L656.23,375Zm9-9.26h13.34l-6.68-12.68Z"
          transform="translate(-378.59 -350.23)"/>
</svg>