<svg id="Layer_1" data-name="Layer 1" xmlns="http://www.w3.org/2000/svg" viewBox="0 0 192 192"><defs><style>.cls-1,.cls-2{fill:#f63;}.cls-2{isolation:isolate;font-size:33.54px;font-family:BankGothicBT-Light, BankGothic Lt BT;letter-spacing:-0.02em;}</style></defs><title>antrophia-icon</title><g id="Layer_2" data-name="Layer 2"><g id="Layer_1-2" data-name="Layer 1-2"><path class="cls-1" d="M95.41,50.67a40.85,40.85,0,0,1,26.74,10L95.41,3.2,68.68,60.58A40.9,40.9,0,0,1,95.41,50.67Z"/><path class="cls-1" d="M136.46,91.27v.45a41.06,41.06,0,0,1-82.12,0v-.45L20.17,164.62H170.63Z"/><path class="cls-1" d="M84.24,66.3a20.9,20.9,0,1,0,20.89,20.91v0A20.91,20.91,0,0,0,84.24,66.3Zm11.17,16a2.44,2.44,0,1,1,2.43-2.43,2.41,2.41,0,0,1-2.41,2.43Z"/></g></g><text class="cls-2" transform="translate(8.59 184.8)">antrophia</text></svg>